<?xml version="1.0" encoding="UTF-8"?>
<svg version="1.1" xmlns="http://www.w3.org/2000/svg" width="800" height="800">
<path d="M0 0 C0.54462891 0.40573242 1.08925781 0.81146484 1.65039062 1.22949219 C18.06462584 13.50609397 33.19307966 27.14507102 47.75 41.5625 C48.56170654 42.36115479 49.37341309 43.15980957 50.2097168 43.98266602 C50.960354 44.73217529 51.71099121 45.48168457 52.484375 46.25390625 C53.50096191 47.26432983 53.50096191 47.26432983 54.53808594 48.29516602 C56 50 56 50 56 52 C56.66 52 57.32 52 58 52 C59.7421875 53.87890625 59.7421875 53.87890625 61.875 56.5625 C62.68453125 57.57957031 63.4940625 58.59664063 64.328125 59.64453125 C64.76318359 60.19447754 65.19824219 60.74442383 65.64648438 61.31103516 C66.98576109 62.98223218 68.35461067 64.62385847 69.734375 66.26171875 C121.04364683 127.7712914 147.31077667 208.89236618 147.1875 288.375 C147.18659363 289.47317551 147.18659363 289.47317551 147.18566895 290.59353638 C147.07737449 339.4574494 137.54409559 386.7881771 119 432 C118.69803711 432.74685059 118.39607422 433.49370117 118.08496094 434.26318359 C112.55007036 447.81978452 105.37548138 460.37357379 98 473 C97.19489371 474.39949875 96.39016015 475.79921203 95.5859375 477.19921875 C84.56531987 496.18931167 71.01419057 513.49382585 56.16015625 529.62890625 C54.32514593 531.64310384 52.54151326 533.68738952 50.76171875 535.75 C46.92153009 540.14690089 42.87938551 544.31280431 38.75 548.4375 C38.00129639 549.18539795 37.25259277 549.9332959 36.48120117 550.70385742 C31.7358238 555.39709341 26.93172605 559.77274874 21.6640625 563.875 C19.27104719 565.78379814 17.03355692 567.8008494 14.78198242 569.87182617 C-3.20718015 586.12569975 -25.42347678 599.17367113 -47 610 C-47.99837891 610.50466797 -48.99675781 611.00933594 -50.02539062 611.52929688 C-64.03804579 618.56606784 -78.18317105 624.85814073 -93 630 C-93.7744043 630.27005859 -94.54880859 630.54011719 -95.34667969 630.81835938 C-128.97792769 642.37597961 -164.52486199 647.88867811 -200 649 C-200.69931641 649.02336426 -201.39863281 649.04672852 -202.11914062 649.07080078 C-295.17274519 651.74552999 -383.86911952 616.89138379 -453.10546875 555.671875 C-454.47428672 554.46392842 -455.85321038 553.26740052 -457.23828125 552.078125 C-461.56097764 548.32936645 -465.44017691 544.49134353 -469.12890625 540.12109375 C-471.27294591 537.69058533 -473.55495214 535.450351 -475.875 533.1875 C-481.01099064 528.09798891 -485.51859418 522.66588514 -490 517 C-490.80695313 516.02160156 -491.61390625 515.04320312 -492.4453125 514.03515625 C-536.0197147 460.75276721 -561.57862611 394.06772386 -569 326 C-569.09716309 325.15373047 -569.19432617 324.30746094 -569.29443359 323.43554688 C-570.3565452 312.82587188 -570.24383034 302.15164977 -570.25 291.5 C-570.25067474 290.4529892 -570.25134949 289.40597839 -570.25204468 288.32723999 C-570.23504533 271.69091689 -569.57292775 255.46422744 -567 239 C-566.82839355 237.86191895 -566.65678711 236.72383789 -566.47998047 235.55126953 C-560.93323848 199.53958001 -550.1801151 164.66314298 -534 132 C-533.55543457 131.09846191 -533.11086914 130.19692383 -532.65283203 129.26806641 C-520.47771117 104.79771936 -505.68646761 81.85465224 -488 61 C-487.22785156 60.04351562 -486.45570313 59.08703125 -485.66015625 58.1015625 C-478.75086017 49.649732 -471.13211765 41.91633229 -463.4375 34.1875 C-462.90697021 33.65179382 -462.37644043 33.11608765 -461.82983398 32.56414795 C-454.87835032 25.55928625 -447.73560024 19.14018061 -440 13 C-438.30943026 11.586998 -436.62156831 10.17074439 -434.9375 8.75 C-353.09441458 -57.9283836 -242.40799735 -82.8435444 0 0 Z M-278.5625 -46.5 C-282.74487332 -39.22630727 -282.35191734 -31.01749669 -282.3125 -22.875 C-282.30686035 -21.67391602 -282.3012207 -20.47283203 -282.29541016 -19.23535156 C-282.30585885 -4.02624956 -282.30585885 -4.02624956 -275.9375 9.375 C-273.40802857 12.22211033 -273.40802857 12.22211033 -271 12 C-270.67 13.32 -270.34 14.64 -270 16 C-278.60786182 10.68371215 -287.13891167 5.28700942 -295.52978516 -0.36621094 C-301.5783153 -4.42439209 -307.76481824 -8.23575874 -314 -12 C-316.56759721 -9.77005941 -317.48141146 -8.12568467 -318.1875 -4.8125 C-318.455625 -3.554375 -318.72375 -2.29625 -319 -1 C-319.95261719 -1.34933594 -320.90523437 -1.69867188 -321.88671875 -2.05859375 C-323.15357779 -2.51841666 -324.4205087 -2.97804162 -325.6875 -3.4375 C-326.31333984 -3.66759766 -326.93917969 -3.89769531 -327.58398438 -4.13476562 C-331.03242308 -5.38053667 -334.3813479 -6.39804449 -338 -7 C-338 -5.02 -338 -3.04 -338 -1 C-338.56847656 -1.2165625 -339.13695312 -1.433125 -339.72265625 -1.65625 C-344.7242219 -3.45981958 -348.68962036 -4.3389604 -354 -4 C-353.67 -1.36 -353.34 1.28 -353 4 C-353.99 3.67 -354.98 3.34 -356 3 C-359.38672603 2.59818505 -362.62283637 2.4816954 -366 3 C-366.845625 3.845625 -367.69125 4.69125 -368.5625 5.5625 C-371 8 -371 8 -373.15625 8.14453125 C-376.16900466 7.8070636 -379.03731892 7.26901268 -381.95703125 6.453125 C-384.39006577 5.91348446 -386.63438466 5.86756533 -389.125 5.875 C-389.99382812 5.87242187 -390.86265625 5.86984375 -391.7578125 5.8671875 C-394.03719449 5.85462066 -394.03719449 5.85462066 -396 7 C-397.37025906 7.08184111 -398.74162098 7.14577744 -400.11328125 7.19921875 C-405.70911613 7.78395834 -408.94722587 10.29340872 -413.1875 13.8125 C-413.91654541 14.39418945 -414.64559082 14.97587891 -415.39672852 15.57519531 C-417.61781558 17.36057136 -419.81238104 19.17382675 -422 21 C-422.65291016 21.54253418 -423.30582031 22.08506836 -423.97851562 22.64404297 C-428.03972222 26.03576197 -432.04262277 29.48787414 -436 33 C-436.74064697 33.65307129 -437.48129395 34.30614258 -438.24438477 34.97900391 C-444.72452975 40.74240074 -450.92889212 46.74566641 -457.0625 52.875 C-457.99126953 53.79152344 -458.92003906 54.70804687 -459.87695312 55.65234375 C-466.0278539 61.79029527 -471.58342852 68.21225345 -477 75 C-478.05969125 76.25978145 -479.12418848 77.51554973 -480.1953125 78.765625 C-529.66883179 137.21923955 -552.20105472 213.86709945 -552.25 289.5 C-552.25067474 290.44441956 -552.25134949 291.38883911 -552.25204468 292.36187744 C-552.23318711 309.08871198 -551.34892425 325.41881422 -549 342 C-548.83371094 343.19689453 -548.66742187 344.39378906 -548.49609375 345.62695312 C-540.48770844 401.35938273 -517.02325998 454.01174173 -482 498 C-481.34773438 498.845625 -480.69546875 499.69125 -480.0234375 500.5625 C-474.87258129 507.17594501 -469.22940057 513.26727789 -463.50390625 519.37841797 C-462.08829121 520.90480028 -460.69603543 522.44845526 -459.3125 524.00390625 C-451.99726542 532.17911632 -444.15200618 539.66319444 -436 547 C-435.43442383 547.51030762 -434.86884766 548.02061523 -434.28613281 548.54638672 C-382.87529623 594.59749934 -316.00655963 624.63898788 -247 630 C-245.43596436 630.12918823 -245.43596436 630.12918823 -243.84033203 630.26098633 C-233.30447362 631.05773845 -222.81162487 631.19850539 -212.25 631.1875 C-211.35624664 631.18756042 -210.46249329 631.18762085 -209.54165649 631.18768311 C-190.20139304 631.16914246 -171.0739639 630.42822375 -152 627 C-153.32146748 623.30274608 -154.93307169 620.50136253 -157.34375 617.41015625 C-158.00802002 616.55035156 -158.67229004 615.69054687 -159.35668945 614.8046875 C-160.06398193 613.89976562 -160.77127441 612.99484375 -161.5 612.0625 C-166.22470331 605.95268911 -170.89995369 599.83942242 -175.3125 593.5 C-180.13328912 586.63481874 -185.45017849 580.27995898 -191 574 C-191.46051758 573.47631836 -191.92103516 572.95263672 -192.39550781 572.41308594 C-197.06258253 567.13114783 -201.7979751 562.07291734 -207.125 557.4375 C-212.42290749 552.79344818 -216.67969935 547.54464578 -221 542 C-231.08135722 529.20723082 -239.45341787 522.82357996 -254.5625 516.75 C-268.84064462 510.85029457 -281.2892399 504.19524997 -293 494 C-293.81855469 493.29101562 -294.63710938 492.58203125 -295.48046875 491.8515625 C-302.52622462 485.62508057 -309.19060297 479.01636867 -315.66015625 472.1953125 C-316.43230469 471.47085938 -317.20445312 470.74640625 -318 470 C-320.1477633 469.99521963 -320.1477633 469.99521963 -322 471 C-322.99 471.33 -323.98 471.66 -325 472 C-325.2686084 471.30938477 -325.5372168 470.61876953 -325.81396484 469.90722656 C-327.91387072 464.75990686 -330.31233266 459.74902567 -332.69287109 454.72705078 C-333.30958091 453.4190057 -333.92036397 452.10814829 -334.52490234 450.79443359 C-339.88246772 439.16245323 -345.81083666 430.29805525 -357 423.625 C-358.50396891 422.69099607 -360.00654163 421.75474072 -361.5078125 420.81640625 C-362.2596582 420.34992676 -363.01150391 419.88344727 -363.78613281 419.40283203 C-367.22167393 417.22587799 -370.54427953 414.89534601 -373.875 412.5625 C-387.2090336 403.30828265 -400.97109791 394.8511666 -415.17626953 387.00830078 C-418.08687165 385.39909238 -420.98497518 383.77104267 -423.875 382.125 C-424.82117188 381.59132813 -425.76734375 381.05765625 -426.7421875 380.5078125 C-429 379 -429 379 -431 376 C-431.3359375 373.94921875 -431.3359375 373.94921875 -431.375 371.6875 C-431.40335937 370.94886719 -431.43171875 370.21023438 -431.4609375 369.44921875 C-430.7869017 365.86768953 -429.28922556 363.82038573 -427 361 C-424.75544288 359.47711807 -422.79631535 358.32869371 -420.375 357.1875 C-419.35792969 356.69056641 -419.35792969 356.69056641 -418.3203125 356.18359375 C-410.65447527 352.59190778 -402.61632184 350.03590516 -394.59521484 347.3671875 C-386.77639915 344.72857972 -379.55655224 341.57637727 -372.2734375 337.7265625 C-364.5239868 333.63914339 -357.78182334 331.37369461 -349 331 C-349.47050781 331.53109375 -349.94101562 332.0621875 -350.42578125 332.609375 C-351.35970703 333.66898437 -351.35970703 333.66898437 -352.3125 334.75 C-352.92738281 335.44609375 -353.54226563 336.1421875 -354.17578125 336.859375 C-355.87314734 338.85114506 -357.45477809 340.88898915 -359 343 C-357.98929671 345.6645814 -357.0600516 346.95195872 -354.8125 348.75 C-349.95133994 350.91051558 -346.829108 350.67277535 -341.94140625 348.875 C-339.68631937 347.95732303 -337.43241201 347.03674222 -335.1796875 346.11328125 C-331.1500251 344.70240437 -328.21142043 344.58711564 -324 345 C-324 347.97 -324 350.94 -324 354 C-309.08625906 357.17677946 -309.08625906 357.17677946 -294 357 C-293.030625 356.319375 -292.06125 355.63875 -291.0625 354.9375 C-286.68354099 352.16713818 -283.28329027 353.06076147 -278.26171875 353.65625 C-275.40471584 353.95734731 -272.85383839 353.94121195 -270 353.75 C-266.33085011 353.66295812 -266.17662689 353.83541585 -263.25 356.5625 C-262.5075 357.366875 -261.765 358.17125 -261 359 C-256.21376722 358.79984845 -252.19636732 356.18526425 -248.125 353.875 C-247.41408203 353.47410156 -246.70316406 353.07320313 -245.97070312 352.66015625 C-240.84912918 349.68633912 -236.81827533 346.5819304 -233 342 C-233 341.67 -233 341.34 -233 341 C-233.78246094 340.93941406 -234.56492187 340.87882812 -235.37109375 340.81640625 C-236.38300781 340.73261719 -237.39492188 340.64882813 -238.4375 340.5625 C-239.44683594 340.48128906 -240.45617187 340.40007812 -241.49609375 340.31640625 C-244 340 -244 340 -245 339 C-245 337.906875 -245 336.81375 -245 335.6875 C-245.57479677 331.95137845 -245.57479677 331.95137845 -248.06640625 330.6484375 C-250.35345258 329.65344708 -252.62873912 328.77125859 -255 328 C-254.5359375 327.1028125 -254.5359375 327.1028125 -254.0625 326.1875 C-252.89790296 323.91043228 -252.89790296 323.91043228 -252 321 C-252.66 320.34 -253.32 319.68 -254 319 C-253.2575 318.1646875 -253.2575 318.1646875 -252.5 317.3125 C-250.71384119 314.5588385 -250.5042407 313.22243543 -251 310 C-251.45375 309.54625 -251.9075 309.0925 -252.375 308.625 C-254.83033767 306.16966233 -255.18938627 303.30480984 -256 300 C-257.65 299.67 -259.3 299.34 -261 299 C-260.71125 298.18917969 -260.4225 297.37835938 -260.125 296.54296875 C-257.64030021 289.13200653 -256.43675995 282.80713285 -257 275 C-259.97 275 -262.94 275 -266 275 C-265.50628906 274.24074219 -265.01257813 273.48148437 -264.50390625 272.69921875 C-263.86324219 271.70535156 -263.22257812 270.71148437 -262.5625 269.6875 C-261.92441406 268.70136719 -261.28632813 267.71523438 -260.62890625 266.69921875 C-258.89384394 264.04723007 -258.89384394 264.04723007 -258 261 C-265.82988175 260.5302071 -271.30681242 260.83196955 -278 265 C-279.32767623 265.67786286 -280.65968703 266.34747921 -282 267 C-280.25270332 257.56459791 -276.00169205 249.51227675 -268 244 C-259.66244205 241.22081402 -250.06436568 243.00873393 -242 246 C-239.44049262 247.46204419 -237.09582126 249.0212774 -234.7421875 250.79296875 C-233.07924686 252.18983249 -233.07924686 252.18983249 -231 252 C-230.72696548 252.56657822 -230.45393097 253.13315643 -230.17262268 253.71690369 C-228.96548743 256.06719598 -227.628225 258.28302938 -226.23803711 260.52954102 C-222.9058437 266.04969041 -220.02811841 271.74058282 -217.19140625 277.52734375 C-216.10361037 279.72335423 -215.01571675 281.91931629 -213.92773438 284.11523438 C-212.24295919 287.52819793 -210.56021445 290.94214437 -208.87963867 294.35717773 C-207.2388711 297.68738682 -205.59049134 301.01374738 -203.94140625 304.33984375 C-203.20356651 305.84816017 -203.20356651 305.84816017 -202.45082092 307.38694763 C-195.94471657 320.48960884 -190.30718583 330.92405929 -176 336 C-171.8505499 337.06539935 -167.83833021 337.19832834 -163.5625 337.25 C-162.28503906 337.27578125 -161.00757813 337.3015625 -159.69140625 337.328125 C-155.11360651 336.92120947 -151.7739071 336.09439588 -148.70678711 332.47314453 C-147.44842246 330.66889563 -146.30665595 328.8310117 -145.1875 326.9375 C-144.59678711 325.98133789 -144.59678711 325.98133789 -143.99414062 325.00585938 C-141.02392449 320.17097924 -139.87653213 317.6795222 -140 312 C-140.61746094 312.42152344 -141.23492187 312.84304688 -141.87109375 313.27734375 C-147.50141427 316.91948412 -152.18651139 319.30488373 -159 319 C-160.34234736 318.70505516 -161.6797475 318.38186676 -163 318 C-162.39550077 314.85243504 -161.37253409 312.85395503 -159.4375 310.3125 C-157.70532108 308.35428474 -157.70532108 308.35428474 -157 306 C-160.3 305.67 -163.6 305.34 -167 305 C-166.71125 303.77023437 -166.4225 302.54046875 -166.125 301.2734375 C-165.74965883 299.64070339 -165.37467782 298.00788646 -165 296.375 C-164.80921875 295.56675781 -164.6184375 294.75851562 -164.421875 293.92578125 C-163.42074457 289.52795831 -162.7646918 285.54438961 -163 281 C-163.639375 280.814375 -164.27875 280.62875 -164.9375 280.4375 C-165.618125 279.963125 -166.29875 279.48875 -167 279 C-167.38063221 276.6739143 -167.71269945 274.33944736 -168 272 C-168.804375 271.2265625 -168.804375 271.2265625 -169.625 270.4375 C-170.07875 269.963125 -170.5325 269.48875 -171 269 C-170.75921963 265.14751405 -170.15973378 263.23960066 -168 260 C-168.66 259.67 -169.32 259.34 -170 259 C-169.67 258.4225 -169.34 257.845 -169 257.25 C-167.72924102 254.80116138 -167.72924102 254.80116138 -168 251 C-171.96 249.515 -171.96 249.515 -176 248 C-176.33 245.36 -176.66 242.72 -177 240 C-180.96 239.67 -184.92 239.34 -189 239 C-185.62618609 233.37697682 -185.62618609 233.37697682 -181.91015625 231.2109375 C-181.12576172 230.74429687 -180.34136719 230.27765625 -179.53320312 229.796875 C-178.71787109 229.32765625 -177.90253906 228.8584375 -177.0625 228.375 C-175.44821938 227.4261774 -173.83490477 226.47570898 -172.22265625 225.5234375 C-171.50859619 225.11013184 -170.79453613 224.69682617 -170.05883789 224.27099609 C-167.92813263 223.02119316 -167.92813263 223.02119316 -165.92358398 221.27978516 C-165.28880127 220.85745605 -164.65401855 220.43512695 -164 220 C-161 221 -161 221 -159.3125 224.0625 C-158.1678125 225.5165625 -158.1678125 225.5165625 -157 227 C-152.83675869 227.477749 -149.67445422 227.11036524 -145.5625 226.4375 C-141.90009929 225.98773149 -139.00566292 226.29001996 -135.40625 226.94140625 C-132.70491213 227.00718558 -130.61758025 226.26872008 -128.06103516 225.47387695 C-123.9146022 224.52052154 -119.66953081 224.75591408 -115.4375 224.8125 C-114.05788086 224.8134668 -114.05788086 224.8134668 -112.65039062 224.81445312 C-107.99361599 224.84458323 -103.57908975 225.04761028 -99 226 C-99.03255208 228.05078125 -99.06510417 230.1015625 -99.09765625 232.15234375 C-99.20561184 234.01732141 -99.20561184 234.01732141 -98 235 C-91.20394249 235.78416048 -86.35901049 233.80053726 -80.1484375 231.09375 C-76.16688421 229.71058012 -72.9048262 229.18572315 -68.953125 230.875 C-68.39109375 231.24625 -67.8290625 231.6175 -67.25 232 C-64.35212796 234.17469914 -64.35212796 234.17469914 -62 234 C-64.62711448 238.94515667 -68.26645294 242.87775489 -72 247 C-71.67 247.66 -71.34 248.32 -71 249 C-62.65589275 248.87010826 -56.55981761 246.2722935 -49.1875 242.5625 C-38.31273013 237.29136817 -27.45959854 233.14605653 -15.9597168 229.47485352 C-1.59765899 225.0107024 -1.59765899 225.0107024 9 215 C10.76026219 211.47947562 9.92677207 207.72653103 9 204 C3.94167787 197.25557049 -4.88872517 193.45578028 -12.1875 189.5 C-27.75515389 180.940898 -42.67391177 171.41566206 -57.22167969 161.23144531 C-60.91886741 158.6712291 -64.68724196 156.21754876 -68.44921875 153.75390625 C-78.43741397 146.88606605 -82.76655744 137.70887703 -87.9765625 127.10546875 C-89.8786473 123.23460742 -91.81287384 119.38393592 -93.8125 115.5625 C-94.35519531 114.51191406 -94.89789062 113.46132812 -95.45703125 112.37890625 C-96.83847131 109.70726254 -96.83847131 109.70726254 -100 109 C-101.15822266 108.87044922 -101.15822266 108.87044922 -102.33984375 108.73828125 C-105.99891214 107.72276888 -107.81948843 105.79615998 -110.5625 103.1875 C-111.08497314 102.69757568 -111.60744629 102.20765137 -112.14575195 101.70288086 C-114.78503843 99.20769222 -117.35048091 96.65698055 -119.8515625 94.0234375 C-135.71974295 77.3743589 -154.7954186 67.77549233 -175.81933594 59.14379883 C-186.16870124 54.84141982 -192.82610625 49.18615722 -198.75 39.6875 C-203.54860228 32.2586478 -210.35249112 26.18921646 -217.0625 20.5 C-226.2712869 12.5588194 -233.50040194 2.92021713 -240.77734375 -6.7421875 C-243.62535339 -10.5231804 -246.54881589 -14.23689464 -249.5 -17.9375 C-252.56369842 -21.7837797 -255.51465191 -25.68637004 -258.36328125 -29.6953125 C-258.93691406 -30.50234619 -259.51054687 -31.30937988 -260.1015625 -32.14086914 C-261.21213917 -33.71275984 -262.31546118 -35.28981076 -263.41015625 -36.87280273 C-266.5429284 -41.31534658 -269.53621314 -44.8560497 -274 -48 C-277.00030058 -48.34626591 -277.00030058 -48.34626591 -278.5625 -46.5 Z M-253 292 C-253 295.99662581 -252.97292763 296.51956208 -250.84765625 299.50390625 C-250.40107666 300.15705811 -249.95449707 300.81020996 -249.49438477 301.4831543 C-248.78560181 302.51243042 -248.78560181 302.51243042 -248.0625 303.5625 C-244.22361356 309.36004231 -242.05569295 313.66761608 -242.06640625 320.78125 C-241.97575946 323.8099191 -240.90942843 325.69277398 -239 328 C-238.67 328 -238.34 328 -238 328 C-236.08837993 315.85862928 -238.56232694 306.50357184 -245 296 C-246.82841166 293.62845235 -246.82841166 293.62845235 -249 292 C-250.32 292 -251.64 292 -253 292 Z M-70 333 C-79.24594641 345.46346505 -82.46242201 359.7425663 -81 375 C-78.74663357 387.64018564 -72.62963821 401.78977772 -61.80078125 409.4140625 C-60.64625276 410.16387184 -59.48316019 410.90063491 -58.3125 411.625 C-57.69963135 412.01107422 -57.0867627 412.39714844 -56.45532227 412.79492188 C-44.03165396 420.44025622 -30.34782357 423.22107647 -15.87451172 420.61767578 C-1.44376364 417.09703751 11.0658761 408.93409772 19.08007812 396.296875 C27.54285806 381.78007603 28.86138651 367.57173285 24.95703125 351.3125 C20.94773357 337.43542067 10.51913851 326.03587376 -2 319 C-25.59236137 307.90171745 -52.45477575 313.86243607 -70 333 Z M-326 412 C-324.03518294 422.9844097 -324.03518294 422.9844097 -317.875 431.9375 C-308.66909963 435.33968057 -301.27915565 435.39481304 -292 432 C-295.56484056 423.48501815 -306.08741687 419.80659075 -313.9375 416.0625 C-314.77853271 415.66071533 -315.61956543 415.25893066 -316.48608398 414.8449707 C-321.04688903 412.63407405 -321.04688903 412.63407405 -326 412 Z M-145 570 C-144.72285156 570.79664063 -144.44570313 571.59328125 -144.16015625 572.4140625 C-143.79792969 573.47367188 -143.43570312 574.53328125 -143.0625 575.625 C-142.70285156 576.66914062 -142.34320313 577.71328125 -141.97265625 578.7890625 C-140.18422739 584.69303248 -139.8604701 590.32352652 -139.90234375 596.4609375 C-139.9037587 597.25150543 -139.90517365 598.04207336 -139.90663147 598.8565979 C-139.91219496 601.36277166 -139.92474056 603.86885358 -139.9375 606.375 C-139.94251972 608.08202995 -139.9470818 609.78906132 -139.95117188 611.49609375 C-139.96215241 615.66409748 -139.97939161 619.83203321 -140 624 C-97.66360898 615.17629037 -57.67423478 599.60766098 -22 575 C-22.99 573.02 -22.99 573.02 -24 571 C-24.53367187 571.49886719 -25.06734375 571.99773438 -25.6171875 572.51171875 C-28.74145239 574.46310387 -30.49072081 574.18468522 -34.125 573.8125 C-35.26582031 573.69648437 -36.40664063 573.58046875 -37.58203125 573.4609375 C-42.10672717 572.85074994 -46.5536874 572.03379277 -51 571 C-51.45375 571.804375 -51.9075 572.60875 -52.375 573.4375 C-54 576 -54 576 -56 577 C-58.04055005 577.07065617 -60.08334257 577.08421976 -62.125 577.0625 C-63.22070312 577.05347656 -64.31640625 577.04445313 -65.4453125 577.03515625 C-66.28835938 577.02355469 -67.13140625 577.01195312 -68 577 C-68.33 579.31 -68.66 581.62 -69 584 C-69.59167969 583.86722656 -70.18335938 583.73445312 -70.79296875 583.59765625 C-74.85446525 582.68994822 -78.91374171 581.7908887 -83 581 C-83.66 582.98 -84.32 584.96 -85 587 C-85.80824219 586.65066406 -86.61648438 586.30132813 -87.44921875 585.94140625 C-88.51785156 585.48636719 -89.58648438 585.03132812 -90.6875 584.5625 C-91.74324219 584.11003906 -92.79898438 583.65757812 -93.88671875 583.19140625 C-96.61972529 582.14552545 -99.12042337 581.46479252 -102 581 C-102.50367757 582.45706726 -103.00282556 583.91570096 -103.5 585.375 C-103.7784375 586.18710937 -104.056875 586.99921875 -104.34375 587.8359375 C-105.09673305 589.94209242 -105.09673305 589.94209242 -105 592 C-110.86529407 589.7133967 -115.91673736 586.67145607 -121.1875 583.25 C-122.86625407 582.17562342 -124.54594199 581.1027046 -126.2265625 580.03125 C-127.03899414 579.51304687 -127.85142578 578.99484375 -128.68847656 578.4609375 C-136.40305786 572.77044962 -136.40305786 572.77044962 -145 570 Z " fill="#020202" transform="translate(609,130)"/>
<path d="M0 0 C13.22809444 -0.60931787 25.2259851 3.21439047 35.69140625 11.19140625 C36.32175781 11.6296875 36.95210938 12.06796875 37.6015625 12.51953125 C47.60198744 20.08249498 54.57015822 33.00072368 56.69140625 45.19140625 C58.3469262 60.1996984 56.10840274 75.59548666 46.68359375 87.7890625 C35.36537976 100.8621912 23.01597314 107.61037028 5.75390625 109.515625 C-9.59049787 110.12022788 -22.92307491 104.77933981 -34.49609375 94.94140625 C-45.11005142 84.97728272 -51.05480479 72.73535824 -52.30859375 58.19140625 C-52.47409813 42.26620718 -47.6297194 28.57081402 -36.62109375 17.00390625 C-26.17669966 7.04420709 -14.40317651 1.19417199 0 0 Z " fill="#020202" transform="translate(211.30859375,287.80859375)"/>
<path d="M0 0 C1.86738586 0.8225708 1.86738586 0.8225708 3.34712219 4.25323486 C3.81613245 5.77605508 4.26558997 7.30498152 4.69941711 8.8381958 C5.06071968 10.05016632 5.06071968 10.05016632 5.42932129 11.28662109 C5.93564563 12.99917204 6.43357931 14.71422252 6.92378235 16.43145752 C7.67465436 19.05429687 8.45523005 21.66686169 9.24043274 24.27960205 C9.7285629 25.94443934 10.21494853 27.60978931 10.69941711 29.2756958 C10.93264175 30.05608215 11.16586639 30.83646851 11.40615845 31.64050293 C12.55284702 35.71631862 13.21441881 38.65572128 11.86738586 42.8225708 C8.25056233 42.26432195 6.88821758 41.07656353 4.61738586 38.2600708 C1.41918035 34.40973661 -2.0061299 30.93736224 -5.62870789 27.4866333 C-7.13261414 25.8225708 -7.13261414 25.8225708 -7.13261414 23.8225708 C-7.70495789 23.58796143 -8.27730164 23.35335205 -8.86698914 23.1116333 C-11.64945714 21.52850495 -13.30331628 19.6234183 -15.38261414 17.1975708 C-16.08902039 16.38030518 -16.79542664 15.56303955 -17.52323914 14.7210083 C-18.05433289 14.09452393 -18.58542664 13.46803955 -19.13261414 12.8225708 C-17.63633517 8.10603928 -13.78150017 6.37639014 -9.75761414 4.0100708 C-9.08472351 3.59048096 -8.41183289 3.17089111 -7.71855164 2.73858643 C-2.75152107 -0.22892101 -2.75152107 -0.22892101 0 0 Z " fill="#0A0A0A" transform="translate(255.1326141357422,392.17742919921875)"/>
<path d="M0 0 C5.60084321 0.58403362 10.78391167 1.60317148 16.18359375 3.1796875 C16.92456802 3.39311798 17.6655423 3.60654846 18.42897034 3.82644653 C19.97857574 4.27541685 21.52723209 4.72767501 23.07495117 5.18310547 C25.4518503 5.87920262 27.83393642 6.55510081 30.21679688 7.23046875 C31.72691784 7.67065778 33.23669696 8.11202164 34.74609375 8.5546875 C35.45954453 8.75480438 36.1729953 8.95492126 36.9080658 9.16110229 C38.89233398 9.75732422 38.89233398 9.75732422 42 11 C43 14 43 14 42.2590332 15.90112305 C40.95852802 18.17286832 39.6506072 20.43763424 38.3125 22.6875 C37.86455078 23.48478516 37.41660156 24.28207031 36.95507812 25.10351562 C36.51228516 25.85697266 36.06949219 26.61042969 35.61328125 27.38671875 C35.20891846 28.07983154 34.80455566 28.77294434 34.38793945 29.48706055 C33.92991943 29.98633057 33.47189941 30.48560059 33 31 C28.69171997 31 28.2561676 30.80999585 25.25 28.125 C24.63640625 27.59132813 24.0228125 27.05765625 23.390625 26.5078125 C22 25 22 25 22 23 C21.4030835 22.72905518 20.80616699 22.45811035 20.19116211 22.17895508 C18.02905086 21.01563082 16.64906014 19.88073546 14.94140625 18.13671875 C14.39033203 17.57919922 13.83925781 17.02167969 13.27148438 16.44726562 C12.70751953 15.86654297 12.14355469 15.28582031 11.5625 14.6875 C11.00240234 14.11837891 10.44230469 13.54925781 9.86523438 12.96289062 C8.76190391 11.84153609 7.66235434 10.71644703 6.56689453 9.58740234 C5.1103966 8.11184149 3.60183989 6.68816924 2.08984375 5.26953125 C0 3 0 3 0 0 Z " fill="#0A0A0A" transform="translate(122,289)"/>
<path d="M0 0 C0.99 0.33 1.98 0.66 3 1 C2.36592603 6.18849317 1.28880059 11.06326239 -0.14453125 16.0859375 C-0.35559006 16.82832672 -0.56664886 17.57071594 -0.78410339 18.33560181 C-1.22934351 19.89103787 -1.67740729 21.44566821 -2.12817383 22.99951172 C-2.81533493 25.38484086 -3.47885723 27.77602735 -4.14257812 30.16796875 C-4.57928357 31.68270918 -5.01738508 33.19704798 -5.45703125 34.7109375 C-5.65198685 35.42752533 -5.84694244 36.14411316 -6.04780579 36.88241577 C-7.49340359 41.71903761 -7.49340359 41.71903761 -9.91796875 43.0637207 C-13.85894818 42.94310677 -16.84679394 40.74565524 -20.1875 38.8125 C-21.29254883 38.21211914 -21.29254883 38.21211914 -22.41992188 37.59960938 C-23.47083008 37.0030957 -23.47083008 37.0030957 -24.54296875 36.39453125 C-25.18258545 36.03206299 -25.82220215 35.66959473 -26.48120117 35.29614258 C-28 34 -28 34 -28.9543457 32.11694336 C-29 30 -29 30 -27.48046875 27.92871094 C-26.72378906 27.20458008 -25.96710938 26.48044922 -25.1875 25.734375 C-23.94419922 24.52201172 -23.94419922 24.52201172 -22.67578125 23.28515625 C-21.79277344 22.44855469 -20.90976563 21.61195313 -20 20.75 C-18.28929874 19.10141195 -16.58093215 17.45039756 -14.875 15.796875 C-14.04613281 14.99443359 -13.21726563 14.19199219 -12.36328125 13.36523438 C-9.58973034 10.58939128 -7.00717552 7.69397944 -4.47265625 4.70019531 C-3.04756597 3.05491535 -1.55766638 1.51930594 0 0 Z " fill="#090909" transform="translate(265,250)"/>
<path d="M0 0 C4.71085387 1.37250978 8.6834536 3.40110192 12.8125 6 C13.39708984 6.35578125 13.98167969 6.7115625 14.58398438 7.078125 C18.87008929 9.74017857 18.87008929 9.74017857 20 12 C17.67614582 14.67504758 15.33983657 17.33892427 13 20 C12.33613281 20.75925781 11.67226562 21.51851563 10.98828125 22.30078125 C6.49880267 27.37115355 1.8649756 32.28938058 -2.875 37.125 C-3.43461426 37.70596436 -3.99422852 38.28692871 -4.57080078 38.88549805 C-5.98978291 40.31632297 -7.48995225 41.66563647 -9 43 C-9.99 43 -10.98 43 -12 43 C-11.42080902 37.37767666 -10.37664515 32.22167741 -8.75 26.81640625 C-8.53182617 26.07543198 -8.31365234 25.3344577 -8.08886719 24.57102966 C-7.63122061 23.02149049 -7.17057386 21.47283444 -6.70703125 19.92504883 C-5.99522838 17.5465556 -5.29379921 15.16517924 -4.59375 12.78320312 C-4.14643339 11.2732596 -3.69853784 9.76348745 -3.25 8.25390625 C-3.03956055 7.54045547 -2.82912109 6.8270047 -2.61230469 6.0919342 C-1.11602229 1.11602229 -1.11602229 1.11602229 0 0 Z " fill="#0A0A0A" transform="translate(172,392)"/>
<path d="M0 0 C-0.55824885 3.61682353 -1.74600727 4.97916829 -4.5625 7.25 C-7.52233964 9.71917104 -10.30360862 12.24487534 -13 15 C-16.25750107 18.30869951 -19.65243743 21.37774015 -23.18359375 24.390625 C-24.8143907 25.83554617 -26.27784765 27.3347898 -27.75 28.9375 C-30 31 -30 31 -34 31 C-35.38793945 29.48706055 -35.38793945 29.48706055 -36.61328125 27.38671875 C-37.05607422 26.63326172 -37.49886719 25.87980469 -37.95507812 25.10351562 C-38.40302734 24.30623047 -38.85097656 23.50894531 -39.3125 22.6875 C-40.01342773 21.50897461 -40.01342773 21.50897461 -40.72851562 20.30664062 C-43.24270362 15.94302039 -43.24270362 15.94302039 -44 14 C-43 11 -43 11 -41.38137817 10.17694092 C-40.6820517 9.96740784 -39.98272522 9.75787476 -39.26220703 9.54199219 C-38.07559982 9.177117 -38.07559982 9.177117 -36.86502075 8.80487061 C-36.00464203 8.55473206 -35.14426331 8.30459351 -34.2578125 8.046875 C-33.37850067 7.78239563 -32.49918884 7.51791626 -31.5932312 7.24542236 C-29.73043071 6.68825253 -27.86578824 6.13721033 -25.99951172 5.59179688 C-23.13921288 4.75416222 -20.28631142 3.8943067 -17.43359375 3.03125 C-15.62539805 2.49345152 -13.81681612 1.95694959 -12.0078125 1.421875 C-11.15148224 1.16363953 -10.29515198 0.90540405 -9.41287231 0.63934326 C-8.61549652 0.40870178 -7.81812073 0.1780603 -6.99658203 -0.05957031 C-6.29566437 -0.26592102 -5.5947467 -0.47227173 -4.87258911 -0.68487549 C-3 -1 -3 -1 0 0 Z " fill="#090909" transform="translate(307,289)"/>
<path d="M0 0 C1.32 0.33 2.64 0.66 4 1 C5.76336219 7.73174854 7.51909013 14.46543704 9.26904297 21.20068359 C9.86041223 23.4654264 10.45979175 25.72759478 11.06640625 27.98828125 C11.33324219 29.00277344 11.60007813 30.01726562 11.875 31.0625 C12.09929687 31.89910156 12.32359375 32.73570312 12.5546875 33.59765625 C13.08364864 36.45126239 13.13964745 39.10436906 13 42 C11.41586641 43.58413359 9.79022215 43.12979629 7.59765625 43.1328125 C6.70755859 43.13410156 5.81746094 43.13539063 4.90039062 43.13671875 C3.96388672 43.13285156 3.02738281 43.12898438 2.0625 43.125 C1.12986328 43.12886719 0.19722656 43.13273437 -0.76367188 43.13671875 C-1.65505859 43.13542969 -2.54644531 43.13414062 -3.46484375 43.1328125 C-4.285896 43.13168457 -5.10694824 43.13055664 -5.95288086 43.12939453 C-8 43 -8 43 -10 42 C-8.2378607 32.49372219 -6.12487186 23.08975886 -3.875 13.6875 C-3.60929199 12.57189697 -3.34358398 11.45629395 -3.06982422 10.30688477 C-2.69108154 8.73765259 -2.69108154 8.73765259 -2.3046875 7.13671875 C-2.07765137 6.19530029 -1.85061523 5.25388184 -1.61669922 4.28393555 C-1 2 -1 2 0 0 Z " fill="#0C0C0C" transform="translate(212,237)"/>
<path d="M0 0 C3.28113465 1.36209464 4.67769675 2.57926163 6.359375 5.6953125 C6.75253906 6.41074219 7.14570313 7.12617188 7.55078125 7.86328125 C7.94652344 8.60964844 8.34226563 9.35601562 8.75 10.125 C9.36681641 11.25615234 9.36681641 11.25615234 9.99609375 12.41015625 C11.00735347 14.26805201 12.00501405 16.13333832 13 18 C10.29829602 22.05255597 7.06966241 22.47640907 2.59765625 23.734375 C1.76415146 23.97665833 0.93064667 24.21894165 0.07188416 24.46856689 C-1.69100244 24.97810209 -3.45549925 25.48209408 -5.22143555 25.98095703 C-7.92753649 26.74717887 -10.62690591 27.53429772 -13.32617188 28.32421875 C-15.03870076 28.81636468 -16.75158056 29.30729148 -18.46484375 29.796875 C-19.67901222 30.15141754 -19.67901222 30.15141754 -20.91770935 30.51312256 C-26.65412123 32.11529292 -26.65412123 32.11529292 -30 31 C-29.63495972 26.45846948 -26.33629879 24.23674358 -23.125 21.4375 C-21.9420542 20.38109271 -20.76110279 19.32244841 -19.58203125 18.26171875 C-18.98471191 17.72466309 -18.38739258 17.18760742 -17.77197266 16.63427734 C-14.08324907 13.23219472 -10.62741422 9.5947427 -7.14453125 5.984375 C-5 4 -5 4 -3 4 C-3 3.34 -3 2.68 -3 2 C-2.01 1.34 -1.02 0.68 0 0 Z " fill="#090909" transform="translate(152,365)"/>
<path d="M0 0 C4.41041074 0.4325734 6.82026232 3.42204841 9.75390625 6.42578125 C10.29603256 6.96978073 10.83815887 7.51378021 11.39671326 8.07426453 C12.54070553 9.22497108 13.68109826 10.37926586 14.81811523 11.53686523 C16.55271384 13.30253853 18.29767819 15.05739452 20.04492188 16.81054688 C21.15687395 17.93167316 22.26822232 19.05339862 23.37890625 20.17578125 C24.15712486 20.96037468 24.15712486 20.96037468 24.95106506 21.76081848 C30.40493517 27.32219842 30.40493517 27.32219842 32 30 C30.50016907 34.49949278 27.19636045 35.52636262 23.1875 37.75 C22.09985352 38.38615234 22.09985352 38.38615234 20.99023438 39.03515625 C20.28576172 39.43089844 19.58128906 39.82664062 18.85546875 40.234375 C18.21246826 40.59756836 17.56946777 40.96076172 16.90698242 41.33496094 C15 42 15 42 12.88623047 41.94775391 C11 41 11 41 9.85913086 38.67431641 C9.56401611 37.66030762 9.26890137 36.64629883 8.96484375 35.6015625 C8.63033203 34.48136719 8.29582031 33.36117187 7.95117188 32.20703125 C7.61666016 31.02496094 7.28214844 29.84289062 6.9375 28.625 C6.59912109 27.48160156 6.26074219 26.33820313 5.91210938 25.16015625 C4.91796489 21.77968041 3.95512882 18.39168192 3 15 C2.54778076 13.43330566 2.54778076 13.43330566 2.08642578 11.83496094 C1.81169434 10.8659082 1.53696289 9.89685547 1.25390625 8.8984375 C1.01099854 8.04685059 0.76809082 7.19526367 0.51782227 6.31787109 C0 4 0 4 0 0 Z " fill="#0B0B0B" transform="translate(160,251)"/>
<path d="M0 0 C8.82063717 2.002474 15.39763027 11.3175033 21.54418945 17.58056641 C25.20503302 21.29255376 28.93426826 24.73490467 33 28 C32.67 29.32 32.34 30.64 32 32 C22.29417626 29.7020035 12.70040321 27.10389335 3.125 24.3125 C2.06087891 24.00304443 0.99675781 23.69358887 -0.09960938 23.37475586 C-7.73885286 21.13057357 -7.73885286 21.13057357 -10 20 C-9.37666027 17.04703576 -8.43098208 14.72453208 -6.93359375 12.109375 C-6.53076172 11.40039062 -6.12792969 10.69140625 -5.71289062 9.9609375 C-5.29201172 9.23132813 -4.87113281 8.50171875 -4.4375 7.75 C-4.01275391 7.00492187 -3.58800781 6.25984375 -3.15039062 5.4921875 C-2.10453958 3.65901039 -1.05283808 1.82917323 0 0 Z " fill="#090909" transform="translate(273,365)"/>
<path d="M0 0 C0 7.26 0 14.52 0 22 C-5.94840447 21.33906617 -11.36511268 20.59382456 -17.09765625 19.15234375 C-17.8173912 18.97619034 -18.53712616 18.80003693 -19.27867126 18.61854553 C-21.54129272 18.06350018 -23.8018863 17.50066026 -26.0625 16.9375 C-27.61119988 16.55611948 -29.16002711 16.17525569 -30.70898438 15.79492188 C-34.47415171 14.86923561 -38.23752377 13.93656158 -42 13 C-42.33 11.68 -42.66 10.36 -43 9 C-36.5 7.375 -36.5 7.375 -34.40356445 6.85473633 C-29.82841203 5.71700524 -25.26169692 4.55088874 -20.69921875 3.36328125 C-19.62285156 3.08629395 -18.54648438 2.80930664 -17.4375 2.52392578 C-15.28607041 1.97023004 -13.13628652 1.41009644 -10.98828125 0.84326172 C-9.99570313 0.58947754 -9.003125 0.33569336 -7.98046875 0.07421875 C-7.09254639 -0.15692627 -6.20462402 -0.38807129 -5.28979492 -0.6262207 C-3 -1 -3 -1 0 0 Z " fill="#090909" transform="translate(151,332)"/>
<path d="M0 0 C5.48662915 0 9.84153995 0.43833184 15.05078125 1.71484375 C15.7907988 1.89004044 16.53081635 2.06523712 17.29325867 2.2457428 C18.84457442 2.61451137 20.39501087 2.98699711 21.94458008 3.36303711 C24.321209 3.93961282 26.70029939 4.50494021 29.08007812 5.06835938 C30.59130004 5.42904201 32.10237335 5.79034796 33.61328125 6.15234375 C34.32470779 6.3221727 35.03613434 6.49200165 35.76911926 6.66697693 C40.76515751 7.88257876 40.76515751 7.88257876 43 9 C42.67 10.32 42.34 11.64 42 13 C36.98520618 14.2908917 31.96812431 15.57232658 26.94873047 16.84521484 C25.24299739 17.27917198 23.53790755 17.71566589 21.83349609 18.15478516 C19.37764238 18.78702771 16.91958845 19.40998657 14.4609375 20.03125 C13.70444916 20.22811401 12.94796082 20.42497803 12.16854858 20.62780762 C11.4482547 20.80799438 10.72796082 20.98818115 9.98583984 21.17382812 C9.35962738 21.33371216 8.73341492 21.49359619 8.08822632 21.6583252 C6 22 6 22 0 22 C0 14.74 0 7.48 0 0 Z " fill="#090909" transform="translate(277,332)"/>
<path d="M0 0 C7.26 0 14.52 0 22 0 C21.36624719 6.33752814 20.73611111 11.93028749 19.15234375 17.9765625 C18.97619034 18.67268646 18.80003693 19.36881042 18.61854553 20.08602905 C18.06491792 22.26746649 17.5014316 24.44620635 16.9375 26.625 C16.55597908 28.12092519 16.17511457 29.61701794 15.79492188 31.11328125 C14.87083669 34.74414957 13.93790391 38.37267338 13 42 C11.68 42 10.36 42 9 42 C7.7091083 36.98520618 6.42767342 31.96812431 5.15478516 26.94873047 C4.72082802 25.24299739 4.28433411 23.53790755 3.84521484 21.83349609 C3.21297229 19.37764238 2.59001343 16.91958845 1.96875 14.4609375 C1.67345398 13.32620499 1.67345398 13.32620499 1.37219238 12.16854858 C1.19200562 11.4482547 1.01181885 10.72796082 0.82617188 9.98583984 C0.66628784 9.35962738 0.50640381 8.73341492 0.3416748 8.08822632 C0 6 0 6 0 0 Z " fill="#090909" transform="translate(203,406)"/>
<path d="M0 0 C1.28003906 0.25007813 2.56007813 0.50015625 3.87890625 0.7578125 C8.49970672 2.20846995 11.30963875 3.97476386 13.80078125 8.171875 C15.9351144 13.68776479 16.87562885 17.96026057 16.4375 23.875 C4.83676968 22.39555464 -10.31953799 14.06534736 -18.5625 5.875 C-19.3359375 3.64453125 -19.3359375 3.64453125 -19.5625 1.875 C-18.263125 1.689375 -18.263125 1.689375 -16.9375 1.5 C-13.60852411 1.00014148 -13.60852411 1.00014148 -10.82421875 -0.234375 C-6.77169379 -1.34093271 -4.0973876 -0.85172739 0 0 Z " fill="#090909" transform="translate(496.5625,275.125)"/>
<path d="M0 0 C3.03941157 2.26007527 4.78113434 3.59655216 5.37890625 7.4296875 C5.41886719 8.33976562 5.45882813 9.24984375 5.5 10.1875 C5.97960133 19.84433769 11.58194015 27.29183238 17 35 C16.34 36.32 15.68 37.64 15 39 C11.86232821 39 9.74200926 38.69654301 7.40625 36.50390625 C0.44519962 27.6782888 -2.18885085 18.18578114 -2 7 C-1.57599972 4.43920624 -0.95838781 2.4241574 0 0 Z " fill="#131313" transform="translate(425,380)"/>
<path d="M0 0 C0.66 0.33 1.32 0.66 2 1 C-2.875 6.875 -2.875 6.875 -4 8 C-4.36628677 9.99422795 -4.70131344 11.99453311 -5 14 C-5.763125 13.835 -6.52625 13.67 -7.3125 13.5 C-10.03596236 12.90854604 -10.03596236 12.90854604 -13 13 C-14.99819916 15.23328142 -16.65827124 17.31654249 -18 20 C-18.66 20 -19.32 20 -20 20 C-19.68977717 16.79805719 -19.32596084 15.32984132 -17.03125 13.0078125 C-15.77828125 12.07582031 -15.77828125 12.07582031 -14.5 11.125 C-13.60539063 10.44695312 -12.71078125 9.76890625 -11.7890625 9.0703125 C-10.86867187 8.38710937 -9.94828125 7.70390625 -9 7 C-7.28888039 5.67024429 -5.58031892 4.33718658 -3.875 3 C-2.58389161 1.99927931 -1.29244623 0.99899225 0 0 Z " fill="#080808" transform="translate(184,131)"/>
<path d="M0 0 C0.99 0.33 1.98 0.66 3 1 C2.25 7.625 2.25 7.625 0 11 C0.33 8.36 0.66 5.72 1 3 C0.38125 3.78375 -0.2375 4.5675 -0.875 5.375 C-3 8 -3 8 -5 10 C-6.0828125 11.11375 -6.0828125 11.11375 -7.1875 12.25 C-10.33475052 15.32731162 -13.62901251 18.17303355 -17 21 C-17.66 20.67 -18.32 20.34 -19 20 C-18.43152344 19.443125 -17.86304688 18.88625 -17.27734375 18.3125 C-12.83749841 13.92453933 -8.55624049 9.47906492 -4.5078125 4.7265625 C-3.06727105 3.07703058 -1.56673075 1.52920426 0 0 Z " fill="#1C1C1C" transform="translate(265,250)"/>
<path d="M0 0 C3.63391972 4.84522629 4.12505355 6.24496646 4.0625 12.125 C4.05347656 13.22070312 4.04445313 14.31640625 4.03515625 15.4453125 C4.02355469 16.28835938 4.01195312 17.13140625 4 18 C2.68 18.33 1.36 18.66 0 19 C0 12.73 0 6.46 0 0 Z " fill="#020202" transform="translate(425,380)"/>
<path d="M0 0 C-1.5830577 4.2742558 -4.50568404 6.26531794 -8 9 C-9.0625 7.125 -9.0625 7.125 -10 5 C-9.67 4.34 -9.34 3.68 -9 3 C-10.32 2.34 -11.64 1.68 -13 1 C-4.57142857 -1.42857143 -4.57142857 -1.42857143 0 0 Z " fill="#111111" transform="translate(260,461)"/>
<path d="M0 0 C0 0.33 0 0.66 0 1 C-4.455 1.495 -4.455 1.495 -9 2 C-9.33 3.65 -9.66 5.3 -10 7 C-10.99 6.67 -11.98 6.34 -13 6 C-13 5.34 -13 4.68 -13 4 C-14.65 4.66 -16.3 5.32 -18 6 C-18.33 4.68 -18.66 3.36 -19 2 C-17.700625 1.814375 -17.700625 1.814375 -16.375 1.625 C-13.01873061 1.109135 -13.01873061 1.109135 -10.0625 -0.125 C-6.37434944 -1.1787573 -3.7263516 -0.74527032 0 0 Z " fill="#1D1D1D" transform="translate(496,275)"/>
<path d="M0 0 C1.0625 1.875 1.0625 1.875 2 4 C1.67 4.66 1.34 5.32 1 6 C0.91550372 7.7404417 0.89276976 9.48409722 0.90234375 11.2265625 C0.90556641 12.2578125 0.90878906 13.2890625 0.91210938 14.3515625 C0.92048828 15.43179687 0.92886719 16.51203125 0.9375 17.625 C0.94201172 18.71296875 0.94652344 19.8009375 0.95117188 20.921875 C0.96298224 23.61463789 0.97945222 26.30729188 1 29 C-3.69144976 20.25136748 -2.30095503 9.31791705 0 0 Z " fill="#232323" transform="translate(161,328)"/>
<path d="M0 0 C0.4125 0.556875 0.825 1.11375 1.25 1.6875 C4.76922222 6.38786831 4.76922222 6.38786831 8.75 10.6875 C10 12 10 12 10 14 C5.89041233 12.54955729 2.56741255 10.48889248 -1 8 C-0.01 7.67 0.98 7.34 2 7 C1.34 6.01 0.68 5.02 0 4 C0 2.68 0 1.36 0 0 Z " fill="#313131" transform="translate(329,132)"/>
<path d="M0 0 C0.66 0.33 1.32 0.66 2 1 C1.38125 1.5775 0.7625 2.155 0.125 2.75 C-1.81347053 4.80249821 -2.90014249 6.43366582 -4 9 C-7 9 -10 9 -13 9 C-10.59497637 6.36479259 -7.9814151 4.59697057 -4.9375 2.75 C-4.05964844 2.20859375 -3.18179688 1.6671875 -2.27734375 1.109375 C-1.52582031 0.74328125 -0.77429688 0.3771875 0 0 Z " fill="#1B1B1B" transform="translate(219,108)"/>
<path d="M0 0 C1.32 1.65 2.64 3.3 4 5 C3.38125 5.433125 2.7625 5.86625 2.125 6.3125 C-0.2197245 7.99740483 -0.2197245 7.99740483 -2 11 C-2.103125 10.05125 -2.20625 9.1025 -2.3125 8.125 C-2.68539295 4.70892499 -2.68539295 4.70892499 -6 3 C-5.195625 2.87625 -4.39125 2.7525 -3.5625 2.625 C-2.716875 2.41875 -1.87125 2.2125 -1 2 C-0.67 1.34 -0.34 0.68 0 0 Z " fill="#131313" transform="translate(356,426)"/>
<path d="M0 0 C0 3 0 3 -1.609375 4.90234375 C-2.31578125 5.57394531 -3.0221875 6.24554688 -3.75 6.9375 C-4.44609375 7.60652344 -5.1421875 8.27554687 -5.859375 8.96484375 C-6.56578125 9.63644531 -7.2721875 10.30804688 -8 11 C-9.33678606 12.32987165 -10.67116354 13.66218491 -12 15 C-12.33 14.01 -12.66 13.02 -13 12 C-8.71 8.04 -4.42 4.08 0 0 Z " fill="#151515" transform="translate(135,381)"/>
<path d="M0 0 C1.32 0.33 2.64 0.66 4 1 C3.67 2.98 3.34 4.96 3 7 C1.35 6.67 -0.3 6.34 -2 6 C-1.34 4.02 -0.68 2.04 0 0 Z " fill="#0A0A0A" transform="translate(358,416)"/>
<path d="M0 0 C0.66 0.33 1.32 0.66 2 1 C1.43410156 1.61488281 0.86820312 2.22976563 0.28515625 2.86328125 C-0.44832031 3.67152344 -1.18179687 4.47976563 -1.9375 5.3125 C-3.03384766 6.51326172 -3.03384766 6.51326172 -4.15234375 7.73828125 C-6.17951559 9.94639398 -6.17951559 9.94639398 -7 13 C-7.66 13 -8.32 13 -9 13 C-7.47987323 7.59510481 -3.72614782 4.01507372 0 0 Z " fill="#161616" transform="translate(339,374)"/>
<path d="M0 0 C0.66 0.33 1.32 0.66 2 1 C-0.97 3.97 -3.94 6.94 -7 10 C-7.99 9.67 -8.98 9.34 -10 9 C-8.37660195 7.29115995 -6.70680947 5.62553283 -5 4 C-4.34 4 -3.68 4 -3 4 C-3 3.34 -3 2.68 -3 2 C-2.01 1.34 -1.02 0.68 0 0 Z " fill="#161616" transform="translate(152,365)"/>
<path d="M0 0 C-0.33 1.32 -0.66 2.64 -1 4 C-1.66 4 -2.32 4 -3 4 C-3.33 3.34 -3.66 2.68 -4 2 C-8.455 2.495 -8.455 2.495 -13 3 C-8.83099908 0.22066605 -4.8978425 -1.63261417 0 0 Z " fill="#292929" transform="translate(307,289)"/>
<path d="M0 0 C0.66 0.33 1.32 0.66 2 1 C1.50628906 1.47050781 1.01257813 1.94101563 0.50390625 2.42578125 C-0.13675781 3.04839844 -0.77742187 3.67101562 -1.4375 4.3125 C-2.07558594 4.92738281 -2.71367187 5.54226562 -3.37109375 6.17578125 C-5.2221418 8.00644056 -5.2221418 8.00644056 -6 11 C-6.66 11 -7.32 11 -8 11 C-7.91433603 8.087425 -7.42089045 6.43201976 -5.375 4.33203125 C-3.61608625 2.83908228 -1.83686981 1.39563738 0 0 Z " fill="#191919" transform="translate(172,140)"/>
<path d="M0 0 C0.66 0.99 1.32 1.98 2 3 C0.63875 4.11375 0.63875 4.11375 -0.75 5.25 C-3.3069423 7.37674584 -5.69110193 9.60229816 -8 12 C-6.49087042 7.01987239 -3.44338151 3.75740058 0 0 Z " fill="#181818" transform="translate(117,196)"/>
<path d="M0 0 C0.99 0.33 1.98 0.66 3 1 C2.01 1.33 1.02 1.66 0 2 C0 1.34 0 0.68 0 0 Z M-2 3 C-1.34 3.33 -0.68 3.66 0 4 C-0.8125 6.4375 -0.8125 6.4375 -2 9 C-2.99 9.33 -3.98 9.66 -5 10 C-4.25 5.25 -4.25 5.25 -2 3 Z " fill="#0B0B0B" transform="translate(341,373)"/>
<path d="M0 0 C5.94 0.66 11.88 1.32 18 2 C18 2.33 18 2.66 18 3 C15.56183415 3.0809723 13.12635616 3.14046972 10.6875 3.1875 C9.65206055 3.22520508 9.65206055 3.22520508 8.59570312 3.26367188 C6.57421875 3.29296875 6.57421875 3.29296875 3 3 C2.01 2.01 1.02 1.02 0 0 Z " fill="#2A2A2A" transform="translate(334,756)"/>
<path d="M0 0 C2.88437779 1.29299694 4.87219421 2.65941363 7 5 C1.25 5.125 1.25 5.125 -1 4 C-0.67 2.68 -0.34 1.36 0 0 Z " fill="#161616" transform="translate(200,699)"/>
<path d="M0 0 C0.66 0.33 1.32 0.66 2 1 C0.6875 3.5 0.6875 3.5 -1 6 C-1.99 6 -2.98 6 -4 6 C-2.25 1.125 -2.25 1.125 0 0 Z " fill="#0C0C0C" transform="translate(611,542)"/>
<path d="M0 0 C0.66 0.33 1.32 0.66 2 1 C-0.625 5.875 -0.625 5.875 -4 7 C-4 5.68 -4 4.36 -4 3 C-2 1.25 -2 1.25 0 0 Z " fill="#161616" transform="translate(241,399)"/>
<path d="M0 0 C0.66 0.33 1.32 0.66 2 1 C-0.31 3.31 -2.62 5.62 -5 8 C-5.33 7.01 -5.66 6.02 -6 5 C-4.02 3.35 -2.04 1.7 0 0 Z " fill="#262626" transform="translate(426,361)"/>
<path d="M0 0 C0.33 1.32 0.66 2.64 1 4 C0.01 4.66 -0.98 5.32 -2 6 C-2 5.34 -2 4.68 -2 4 C-2.99 3.67 -3.98 3.34 -5 3 C-3.35 2.01 -1.7 1.02 0 0 Z " fill="#0F0F0F" transform="translate(303,290)"/>
<path d="M0 0 C1.98 0.66 3.96 1.32 6 2 C5.01 2.495 5.01 2.495 4 3 C3.67 3.99 3.34 4.98 3 6 C1.68 4.68 0.36 3.36 -1 2 C-0.67 1.34 -0.34 0.68 0 0 Z " fill="#131313" transform="translate(466,202)"/>
<path d="M0 0 C0.99 0.33 1.98 0.66 3 1 C2.01 3.31 1.02 5.62 0 8 C-0.99 7.34 -1.98 6.68 -3 6 C-2.34 5.34 -1.68 4.68 -1 4 C-0.3574765 1.93125966 -0.3574765 1.93125966 0 0 Z " fill="#1C1C1C" transform="translate(524,710)"/>
<path d="M0 0 C0.66 0.33 1.32 0.66 2 1 C0.35 2.98 -1.3 4.96 -3 7 C-4.32 6.67 -5.64 6.34 -7 6 C-4.69 4.02 -2.38 2.04 0 0 Z " fill="#121212" transform="translate(184,131)"/>
<path d="M0 0 C3.26460973 1.80412643 4.88929795 2.83394693 7 6 C3.59687262 4.94124926 0.98646769 3.99097846 -2 2 C-1.34 2 -0.68 2 0 2 C0 1.34 0 0.68 0 0 Z " fill="#1F1F1F" transform="translate(180,683)"/>
<path d="M0 0 C0.33 0.99 0.66 1.98 1 3 C1.66 3.33 2.32 3.66 3 4 C2.01 4.495 2.01 4.495 1 5 C0.34444881 7.52733235 0.34444881 7.52733235 0 10 C-0.66 10 -1.32 10 -2 10 C-1.34 6.7 -0.68 3.4 0 0 Z " fill="#1C1C1C" transform="translate(350,419)"/>
<path d="M0 0 C0.66 0.33 1.32 0.66 2 1 C0.35 2.98 -1.3 4.96 -3 7 C-4.32 6.34 -5.64 5.68 -7 5 C-4.69 3.35 -2.38 1.7 0 0 Z " fill="#202020" transform="translate(442,351)"/>
</svg>
